<?xml version="1.0" encoding="utf-8"?>
<!-- Generator: Adobe Illustrator 18.0.0, SVG Export Plug-In . SVG Version: 6.00 Build 0)  -->
<svg version="1.1" xmlns="http://www.w3.org/2000/svg" xmlns:xlink="http://www.w3.org/1999/xlink" x="0px" y="0px"
	 viewBox="0 0 307 77" enable-background="new 0 0 307 77" xml:space="preserve">
<g id="mockup">
</g>
<g id="design_1_">
	<g>
		<g>
			<path fill="#FFFFFF" d="M185.7,19.1c-3.5,3.5-9.2,3.5-12.7,0s-3.5-9.2,0-12.7l-5.7-5.7c-0.8-0.8-2-0.8-2.8,0L156,9.2l0.7,0.7
				c0.6,0.6,0.6,1.5,0,2.1c-0.6,0.6-1.5,0.6-2.1,0l-0.7-0.7l-38.2,38.2c-0.8,0.8-0.8,2,0,2.8l5.7,5.7c3.5-3.5,9.2-3.5,12.7,0
				s3.5,9.2,0,12.7l5.7,5.7c0.8,0.8,2,0.8,2.8,0l38.2-38.2l-0.7-0.7c-0.6-0.6-0.6-1.5,0-2.1c0.6-0.6,1.5-0.6,2.1,0l0.7,0.7l8.5-8.5
				c0.8-0.8,0.8-2,0-2.8L185.7,19.1z M161.9,17.2c-0.6,0.6-1.5,0.6-2.1,0l-0.7-0.7c-0.6-0.6-0.6-1.5,0-2.1s1.5-0.6,2.1,0l0.7,0.7
				C162.5,15.7,162.5,16.6,161.9,17.2z M167.1,22.4c-0.6,0.6-1.5,0.6-2.1,0l-0.7-0.7c-0.6-0.6-0.6-1.5,0-2.1s1.5-0.6,2.1,0l0.7,0.7
				C167.7,20.9,167.7,21.9,167.1,22.4z M172.4,27.7c-0.6,0.6-1.5,0.6-2.1,0l-0.7-0.7c-0.6-0.6-0.6-1.5,0-2.1c0.6-0.6,1.5-0.6,2.1,0
				l0.7,0.7C173,26.1,173,27.1,172.4,27.7z M177.6,32.9c-0.6,0.6-1.5,0.6-2.1,0l-0.7-0.7c-0.6-0.6-0.6-1.5,0-2.1
				c0.6-0.6,1.5-0.6,2.1,0l0.7,0.7C178.2,31.4,178.2,32.3,177.6,32.9z"/>
			<path fill="#FFFFFF" d="M96.6,37.5c-1.8,0-3.2,1.3-3.4,3H0v1h93.1c0.2,1.7,1.7,3,3.4,3c1.9,0,3.5-1.6,3.5-3.5
				S98.5,37.5,96.6,37.5z"/>
			<path fill="#FFFFFF" d="M206.4,40.5c-0.2-1.7-1.7-3-3.4-3c-1.9,0-3.5,1.6-3.5,3.5s1.6,3.5,3.5,3.5c1.8,0,3.2-1.3,3.4-3H307v-1
				H206.4z"/>
		</g>
		<path fill="#FF7A00" d="M154.8,37.4c0.9,0.9,1.4,1.9,1.4,2.9c0,1-0.4,2-1.2,2.9l-6.2-6.2c1-0.7,2-1.1,3.1-1
			C152.9,36,153.9,36.5,154.8,37.4z M159.5,49.5c-4.7,4.7-12.3,4.7-17,0s-4.7-12.3,0-17s12.3-4.7,17,0
			C164.2,37.2,164.2,44.8,159.5,49.5z M158.5,40.7c0-0.9-0.1-1.7-0.5-2.5c-0.3-0.8-0.9-1.6-1.6-2.3c-0.7-0.7-1.5-1.3-2.4-1.7
			c-0.9-0.4-1.8-0.5-2.7-0.5c-0.9,0-1.8,0.2-2.7,0.6c-0.9,0.4-1.7,1-2.5,1.7c-0.7,0.7-1.3,1.5-1.7,2.4c-0.4,0.9-0.6,1.8-0.7,2.7
			c0,0.9,0.1,1.8,0.5,2.7c0.3,0.9,0.9,1.7,1.7,2.5c0.9,0.9,1.9,1.6,2.9,2c1,0.4,2.2,0.5,3.6,0.4l-0.3-2.2c-0.9,0.1-1.7,0-2.5-0.2
			c-0.7-0.2-1.5-0.7-2.2-1.4c-0.5-0.5-0.8-1-1-1.5c-0.2-0.6-0.3-1.1-0.3-1.7c0-0.6,0.1-1.1,0.3-1.7c0.2-0.6,0.5-1.1,0.9-1.5l8,8
			l0.5-0.5c0.8-0.8,1.4-1.7,1.9-2.5C158.2,42.4,158.4,41.6,158.5,40.7z"/>
	</g>
</g>
</svg>
